<svg width="501" height="131" viewBox="0 0 501 131" fill="none" xmlns="http://www.w3.org/2000/svg">
<path d="M33.7208 84.4476C33.4876 84.4476 33.1378 84.4476 32.6713 84.4476C32.2049 84.331 31.9717 84.0395 31.9717 83.5731C31.9717 82.6402 32.4964 81.9989 33.5459 81.6491C34.7119 81.1827 35.5865 80.8911 36.1695 80.7745C45.498 79.0255 54.3601 76.4601 62.7557 73.0785C71.1513 69.697 79.2554 65.3242 87.0681 59.9604C89.4002 58.4445 91.7906 56.5205 94.2393 54.1884C96.6881 51.8562 98.7287 49.2909 100.361 46.4924C102.11 43.5772 102.985 40.6621 102.985 37.7469C102.985 32.6162 101.352 28.4184 98.0873 25.1535C94.939 21.8885 90.9744 19.3814 86.1935 17.6324C81.4127 15.8833 76.4569 14.7172 71.3262 14.1342C66.3122 13.4345 61.8811 13.0847 58.0331 13.0847C54.4184 13.0847 49.9873 13.3762 44.7401 13.9593C39.4928 14.4257 34.0706 15.3002 28.4735 16.5829C22.993 17.8656 17.979 19.673 13.4313 22.0051C9.0003 24.2206 5.73533 27.0192 3.63642 30.4007C3.51981 30.7505 3.3449 31.1587 3.11169 31.6251C2.76187 31.9749 2.29545 32.1498 1.71242 32.1498C1.3626 32.1498 1.12939 31.9749 1.01278 31.6251C0.779569 31.2753 0.662963 30.9838 0.662963 30.7505C0.662963 30.5173 0.721266 30.2258 0.837872 29.876C0.954478 29.5262 1.07108 29.2347 1.18769 29.0014C3.16999 24.9202 6.37666 21.5387 10.8077 18.8567C15.3553 16.0582 20.4277 13.901 26.0248 12.3851C31.7385 10.7526 37.3356 9.58654 42.8161 8.8869C48.2965 8.18727 53.0191 7.83745 56.9837 7.83745C60.5985 7.83745 64.6797 8.12896 69.2273 8.71199C73.775 9.29502 78.3226 10.2862 82.8702 11.6855C87.4179 12.9681 91.6157 14.7755 95.4637 17.1076C99.3117 19.4398 102.402 22.3549 104.734 25.8531C107.066 29.2347 108.232 33.3159 108.232 38.0967C108.232 43.2274 106.366 48.1248 102.635 52.7891C98.9036 57.4533 94.0644 61.7095 88.1175 65.5575C82.1706 69.4055 75.8156 72.7287 69.0524 75.5273C62.2893 78.3258 55.7593 80.5413 49.4626 82.1738C43.1659 83.6897 37.9186 84.4476 33.7208 84.4476ZM35.9946 129.924C31.3304 129.924 27.8905 128.7 25.675 126.251C23.4594 123.802 22.0602 120.77 21.4771 117.156C20.8941 113.424 20.6026 109.693 20.6026 105.961C20.6026 93.2514 22.8764 81.1827 27.4241 69.7553C32.0883 58.3279 37.4522 47.2503 43.5157 36.5225C43.7489 36.0561 43.8655 35.648 43.8655 35.2982C43.8655 34.7151 43.8072 34.3653 43.6906 34.2487C43.6906 34.1321 43.6323 34.0738 43.5157 34.0738C42.5828 34.0738 42.3496 33.6657 42.8161 32.8495C43.3991 32.0332 44.2736 31.1004 45.4397 30.0509C46.6058 28.8848 47.7718 27.8937 48.9379 27.0775C50.1039 26.2612 50.9202 25.8531 51.3866 25.8531C52.3194 25.8531 53.2523 26.2029 54.1851 26.9025C55.118 27.4856 55.5844 28.3018 55.5844 29.3513C55.5844 29.8177 54.5933 31.6251 52.611 34.7734C50.6287 37.9218 48.1216 42.0613 45.0899 47.192C42.1747 52.3227 39.2013 58.153 36.1695 64.6829C33.2544 71.0962 30.8056 77.9177 28.8233 85.1473C26.841 92.2602 25.8499 99.3732 25.8499 106.486C25.8499 108.352 26.0248 110.801 26.3746 113.832C26.841 116.864 27.6573 119.663 28.8233 122.228C29.9894 124.677 31.7968 126.134 34.2455 126.601C34.8285 126.717 35.7031 126.951 36.8691 127.3C38.0352 127.65 38.6765 128.233 38.7931 129.049C38.5599 129.516 38.1518 129.749 37.5688 129.749C36.9858 129.866 36.461 129.924 35.9946 129.924ZM112.459 130.799C110.243 130.799 108.377 129.982 106.861 128.35C105.462 126.717 104.354 124.735 103.538 122.403C102.722 119.954 102.139 117.505 101.789 115.057C101.556 112.608 101.439 110.567 101.439 108.935C101.439 107.186 101.614 104.387 101.964 100.539C102.43 96.5747 103.13 92.2019 104.063 87.4211C104.996 82.6402 106.162 78.0343 107.561 73.6033C108.96 69.0556 110.593 65.2659 112.459 62.2342C114.441 59.2024 116.715 57.5699 119.28 57.3367C119.63 56.2873 120.155 55.4127 120.854 54.7131C121.554 53.8968 122.487 53.4887 123.653 53.4887C125.985 53.4887 128.025 54.4799 129.775 56.4622C131.524 58.4445 132.981 60.8932 134.147 63.8084C135.313 66.7235 136.188 69.5804 136.771 72.3789C137.471 75.1775 137.82 77.4513 137.82 79.2004C137.82 84.5642 137.296 89.8698 136.246 95.1171L137.645 95.292C141.027 95.292 143.651 94.7673 145.516 93.7178C147.382 92.6684 148.84 91.6772 149.889 90.7444C150.939 89.6949 151.813 89.1702 152.513 89.1702C153.212 89.1702 153.562 89.5783 153.562 90.3945C153.562 91.7938 152.804 93.0765 151.288 94.2425C149.889 95.292 148.14 96.2831 146.041 97.216C143.942 98.0322 141.902 98.6153 139.919 98.9651C137.937 99.3149 136.421 99.3732 135.372 99.14C134.789 101.589 133.797 104.62 132.398 108.235C131.116 111.733 129.483 115.232 127.501 118.73C125.635 122.111 123.42 124.968 120.854 127.3C118.289 129.632 115.49 130.799 112.459 130.799ZM131.524 91.6189C132.223 87.5377 132.573 83.3982 132.573 79.2004C132.573 78.2675 132.34 76.6933 131.873 74.4778C131.524 72.1457 130.941 69.697 130.124 67.1316C129.425 64.5663 128.55 62.3508 127.501 60.4851C126.451 58.6194 125.344 57.6865 124.177 57.6865C123.594 57.6865 123.128 58.153 122.778 59.0858C122.545 59.9021 122.37 60.8349 122.253 61.8844C122.253 62.9338 122.253 63.6335 122.253 63.9833C122.253 68.6475 122.953 73.545 124.352 78.6756C125.868 83.6897 128.259 88.0041 131.524 91.6189ZM112.983 126.251C114.732 126.251 116.54 125.085 118.405 122.753C120.271 120.304 122.02 117.389 123.653 114.007C125.402 110.509 126.859 107.186 128.025 104.037C129.192 100.889 129.949 98.557 130.299 97.0411C125.868 94.0093 122.545 89.9281 120.329 84.7975C118.231 79.6668 117.181 74.4195 117.181 69.0556C117.181 66.7235 117.356 64.508 117.706 62.4091C115.257 66.6069 113.217 71.5627 111.584 77.2764C109.952 82.9901 108.727 88.8204 107.911 94.7673C107.211 100.714 106.861 106.136 106.861 111.034C106.861 112.2 106.978 114.007 107.211 116.456C107.561 118.905 108.202 121.179 109.135 123.277C110.068 125.26 111.351 126.251 112.983 126.251ZM158.088 127.475C157.272 127.475 156.63 127.184 156.164 126.601C155.698 126.018 155.464 125.318 155.464 124.502C155.464 120.071 155.639 115.64 155.989 111.209C156.455 106.661 156.689 102.172 156.689 97.7407C156.689 94.8256 156.572 91.1525 156.339 86.7215C156.222 82.1738 155.814 77.7428 155.115 73.4284C154.531 68.9973 153.482 65.6158 151.966 63.2836C151.85 63.0504 151.733 62.8755 151.616 62.7589C151.5 62.5257 151.441 62.2925 151.441 62.0593C151.441 61.3596 151.791 60.8932 152.491 60.66C153.191 60.3102 153.774 60.1353 154.24 60.1353C155.872 60.1353 157.155 61.0681 158.088 62.9338C159.021 64.7995 159.72 67.1899 160.187 70.1051C160.653 73.0202 160.945 76.052 161.061 79.2004C161.295 82.2321 161.411 85.0307 161.411 87.596C161.411 90.0447 161.411 91.7355 161.411 92.6684C161.411 93.8344 161.411 94.9422 161.411 95.9916C161.528 97.0411 161.586 98.1488 161.586 99.3149C162.053 97.6824 162.869 95.1754 164.035 91.7938C165.201 88.4122 166.6 84.6808 168.233 80.5996C169.865 76.4018 171.614 72.4372 173.48 68.7058C175.462 64.8578 177.386 61.7095 179.252 59.2607C181.234 56.812 183.1 55.5876 184.849 55.5876C186.598 55.5876 187.881 56.6954 188.697 58.9109C189.513 61.1264 190.038 63.5168 190.271 66.0822C190.621 68.6475 190.796 70.5715 190.796 71.8542C190.796 72.6704 190.738 74.0697 190.621 76.052C190.504 77.9177 190.213 79.6668 189.747 81.2993C189.397 82.9318 188.697 83.748 187.648 83.748C186.715 83.748 186.248 82.6985 186.248 80.5996C186.248 79.6668 186.307 78.7922 186.423 77.976C186.54 77.1598 186.598 76.5184 186.598 76.052C186.598 75.469 186.54 74.128 186.423 72.0291C186.307 69.8136 186.015 67.7147 185.549 65.7324C185.199 63.7501 184.674 62.7589 183.975 62.7589C183.275 62.7589 182.4 63.4585 181.351 64.8578C180.418 66.1405 179.427 67.7147 178.377 69.5804C177.445 71.3295 176.57 73.0785 175.754 74.8276C175.054 76.4601 174.588 77.6262 174.355 78.3258C172.605 82.6402 170.74 87.5377 168.757 93.0182C166.892 98.4987 165.259 104.037 163.86 109.635C162.577 115.115 161.936 120.246 161.936 125.027C161.12 126.659 159.837 127.475 158.088 127.475ZM210.911 125.027C208.345 125.027 206.305 124.152 204.789 122.403C203.273 120.537 202.107 118.263 201.291 115.581C200.591 112.783 200.124 110.043 199.891 107.361C199.658 104.562 199.541 102.288 199.541 100.539C199.541 94.2425 199.775 87.8875 200.241 81.4742C200.824 75.0608 201.407 68.7058 201.99 62.4091C200.008 63.2253 198.084 64.1582 196.218 65.2076C194.469 66.2571 192.837 67.5981 191.321 69.2305C191.087 69.4638 190.796 69.697 190.446 69.9302C190.213 70.1634 189.863 70.28 189.397 70.28C188.58 70.28 187.764 69.8719 186.948 69.0556C186.248 68.2394 185.899 67.4232 185.899 66.6069C185.899 65.5575 186.598 64.508 187.997 63.4585C189.397 62.2925 191.087 61.243 193.07 60.3102C195.169 59.2607 197.093 58.3862 198.842 57.6865C200.707 56.9869 201.99 56.5205 202.69 56.2873C202.806 55.3544 203.04 53.6053 203.389 51.04C203.856 48.3581 204.381 45.3846 204.964 42.1196C205.547 38.7381 206.188 35.5314 206.888 32.4996C207.704 29.3513 208.52 26.7859 209.336 24.8036C210.153 22.7047 210.969 21.6553 211.785 21.6553C212.601 21.6553 213.418 21.9468 214.234 22.5298C215.05 23.1128 215.458 23.8125 215.458 24.6287C215.458 24.9785 215.167 26.4361 214.584 29.0014C214.001 31.5668 213.243 34.5985 212.31 38.0967C211.494 41.4783 210.736 44.685 210.036 47.7167C209.453 50.7485 209.045 52.8474 208.812 54.0135C213.942 52.4976 218.84 51.2732 223.504 50.3404C228.285 49.4075 233.299 48.9411 238.546 48.9411C239.013 48.9411 239.887 48.9411 241.17 48.9411C242.452 48.9411 243.677 48.9994 244.843 49.116C246.126 49.2326 246.767 49.4658 246.767 49.8156C245.601 50.2821 244.318 50.6319 242.919 50.8651C241.636 51.0983 240.354 51.2732 239.071 51.3898C233.474 51.8562 228.168 52.9057 223.154 54.5382C218.257 56.1707 213.243 57.9781 208.112 59.9604C207.296 66.6069 206.596 73.3701 206.013 80.2498C205.43 87.013 205.139 93.7178 205.139 100.364C205.139 101.647 205.197 103.396 205.313 105.612C205.43 107.711 205.663 109.868 206.013 112.083C206.363 114.182 206.946 115.99 207.762 117.505C208.578 119.021 209.744 119.779 211.26 119.779C213.243 119.779 215.283 118.672 217.382 116.456C219.481 114.124 221.58 111.325 223.679 108.06C225.778 104.679 227.702 101.297 229.451 97.9156C231.2 94.5341 232.716 91.6772 233.999 89.3451C235.398 87.013 236.331 85.7886 236.797 85.672V86.1967C236.797 87.9458 236.214 90.3945 235.048 93.5429C233.882 96.6913 232.308 100.073 230.325 103.688C228.46 107.186 226.361 110.567 224.029 113.832C221.813 117.097 219.539 119.779 217.207 121.878C214.992 123.977 212.893 125.027 210.911 125.027ZM252.592 63.1087C248.045 63.1087 243.847 61.8844 239.999 59.4356C236.151 56.9869 233.061 53.7802 230.729 49.8156C228.396 45.7344 227.23 41.4783 227.23 37.0473C227.23 31.217 228.63 26.028 231.428 21.4804C234.343 16.9327 238.075 13.0847 242.622 9.93636C247.287 6.788 252.359 4.39757 257.839 2.76509C263.32 1.1326 268.626 0.316362 273.756 0.316362C279.82 0.316362 285.65 1.1326 291.247 2.76509C296.844 4.39757 302.266 6.43818 307.514 8.8869C312.761 11.3356 317.775 13.8427 322.556 16.408C327.337 18.8567 331.884 20.8973 336.199 22.5298C340.513 24.1623 344.536 24.9785 348.267 24.9785C353.165 24.9785 356.605 23.5793 358.587 20.7807C360.569 17.9822 361.561 14.484 361.561 10.2862V9.76145C361.561 9.17842 361.619 8.59539 361.735 8.01236C361.969 7.31272 362.435 6.96291 363.135 6.96291C364.301 6.96291 364.942 7.72085 365.059 9.23673C365.292 10.7526 365.409 11.9187 365.409 12.7349C365.409 16.2331 364.476 19.1482 362.61 21.4804C360.744 23.6959 358.354 25.3867 355.439 26.5527C352.524 27.6022 349.492 28.1269 346.343 28.1269C341.679 28.1269 337.132 27.369 332.701 25.8531C328.386 24.3372 324.013 22.4715 319.582 20.256C315.268 18.0405 310.837 15.8833 306.289 13.7844C301.742 11.5688 296.902 9.70314 291.772 8.18726C286.641 6.67139 281.102 5.91345 275.155 5.91345C270.841 5.91345 266.293 6.61309 261.513 8.01236C256.732 9.41163 252.242 11.4522 248.045 14.1342C243.847 16.8161 240.465 20.1394 237.9 24.104C235.334 27.952 234.052 32.383 234.052 37.3971C234.052 40.8953 234.985 44.3351 236.85 47.7167C238.716 51.0983 241.223 53.8968 244.371 56.1124C247.52 58.3279 250.901 59.4356 254.516 59.4356C256.732 59.4356 258.597 59.0275 260.113 58.2113C261.746 57.395 263.028 56.6371 263.961 55.9375C265.011 55.1212 265.827 54.7131 266.41 54.7131C267.11 54.7131 267.459 55.0629 267.459 55.7625C267.459 57.1618 266.41 58.4445 264.311 59.6105C262.329 60.66 260.172 61.5345 257.839 62.2342C255.507 62.8172 253.758 63.1087 252.592 63.1087ZM289.148 130.449C285.3 130.449 282.268 129.458 280.053 127.475C277.954 125.493 276.496 122.986 275.68 119.954C274.864 116.806 274.456 113.657 274.456 110.509C274.456 102.93 275.039 95.3503 276.205 87.7709C277.371 80.1915 279.003 72.7287 281.102 65.3825C280.17 65.9656 278.479 67.015 276.03 68.5309C273.698 70.0468 271.307 71.4461 268.859 72.7287C266.527 74.0114 264.894 74.6527 263.961 74.6527C263.495 74.6527 263.203 74.3029 263.087 73.6033C263.087 72.9036 263.087 72.4955 263.087 72.3789C263.087 69.697 264.311 67.4815 266.76 65.7324C269.325 63.9833 272.182 62.5257 275.33 61.3596C278.595 60.077 281.277 59.0275 283.376 58.2113C283.843 56.9286 284.601 54.888 285.65 52.0895C286.699 49.2909 287.982 46.2008 289.498 42.8193C291.13 39.3211 292.763 35.9978 294.395 32.8495C296.145 29.5845 297.835 26.9025 299.468 24.8036C301.217 22.7047 302.791 21.6553 304.19 21.6553C305.123 21.6553 306.114 21.8885 307.164 22.3549C308.213 22.8213 308.738 23.521 308.738 24.4538L308.213 25.8531C307.514 27.0192 306.639 28.2435 305.59 29.5262C304.54 30.8088 303.549 32.0915 302.616 33.3742C300.401 36.8724 298.302 40.4871 296.319 44.2185C294.337 47.8333 292.53 51.5064 290.897 55.2378C299.993 52.4393 309.438 51.04 319.233 51.04C319.932 51.04 321.273 51.1566 323.255 51.3898C325.238 51.623 327.103 51.9728 328.853 52.4393C330.602 52.9057 331.476 53.6053 331.476 54.5382C331.476 55.3544 331.068 55.8791 330.252 56.1124C329.552 56.229 328.911 56.2873 328.328 56.2873C326.112 56.2873 323.897 56.0541 321.681 55.5876C319.466 55.1212 317.192 54.888 314.86 54.888C305.648 54.888 296.844 56.9286 288.449 61.0098C285.533 68.4726 283.26 76.2269 281.627 84.2727C279.995 92.2019 279.178 100.248 279.178 108.41C279.178 110.742 279.295 113.191 279.528 115.756C279.761 118.205 280.461 120.421 281.627 122.403C282.793 124.385 284.659 125.843 287.224 126.776C287.807 126.892 288.449 127.125 289.148 127.475C289.964 127.825 290.373 128.466 290.373 129.399C290.373 130.099 289.964 130.449 289.148 130.449ZM339.123 130.799C336.907 130.799 335.042 129.982 333.526 128.35C332.127 126.717 331.019 124.735 330.203 122.403C329.386 119.954 328.803 117.505 328.454 115.057C328.22 112.608 328.104 110.567 328.104 108.935C328.104 107.186 328.279 104.387 328.628 100.539C329.095 96.5747 329.795 92.2019 330.727 87.4211C331.66 82.6402 332.826 78.0343 334.226 73.6033C335.625 69.0556 337.257 65.2659 339.123 62.2342C341.105 59.2024 343.379 57.5699 345.944 57.3367C346.294 56.2873 346.819 55.4127 347.519 54.7131C348.218 53.8968 349.151 53.4887 350.317 53.4887C352.649 53.4887 354.69 54.4799 356.439 56.4622C358.188 58.4445 359.646 60.8932 360.812 63.8084C361.978 66.7235 362.852 69.5804 363.435 72.3789C364.135 75.1775 364.485 77.4513 364.485 79.2004C364.485 84.5642 363.96 89.8698 362.911 95.1171L364.31 95.292C367.691 95.292 370.315 94.7673 372.181 93.7178C374.046 92.6684 375.504 91.6772 376.554 90.7444C377.603 89.6949 378.478 89.1702 379.177 89.1702C379.877 89.1702 380.227 89.5783 380.227 90.3945C380.227 91.7938 379.469 93.0765 377.953 94.2425C376.554 95.292 374.804 96.2831 372.706 97.216C370.607 98.0322 368.566 98.6153 366.584 98.9651C364.601 99.3149 363.086 99.3732 362.036 99.14C361.453 101.589 360.462 104.62 359.063 108.235C357.78 111.733 356.147 115.232 354.165 118.73C352.299 122.111 350.084 124.968 347.519 127.3C344.953 129.632 342.155 130.799 339.123 130.799ZM358.188 91.6189C358.888 87.5377 359.238 83.3982 359.238 79.2004C359.238 78.2675 359.004 76.6933 358.538 74.4778C358.188 72.1457 357.605 69.697 356.789 67.1316C356.089 64.5663 355.215 62.3508 354.165 60.4851C353.116 58.6194 352.008 57.6865 350.842 57.6865C350.259 57.6865 349.792 58.153 349.443 59.0858C349.209 59.9021 349.034 60.8349 348.918 61.8844C348.918 62.9338 348.918 63.6335 348.918 63.9833C348.918 68.6475 349.618 73.545 351.017 78.6756C352.533 83.6897 354.923 88.0041 358.188 91.6189ZM339.648 126.251C341.397 126.251 343.204 125.085 345.07 122.753C346.936 120.304 348.685 117.389 350.317 114.007C352.066 110.509 353.524 107.186 354.69 104.037C355.856 100.889 356.614 98.557 356.964 97.0411C352.533 94.0093 349.209 89.9281 346.994 84.7975C344.895 79.6668 343.846 74.4195 343.846 69.0556C343.846 66.7235 344.02 64.508 344.37 62.4091C341.922 66.6069 339.881 71.5627 338.248 77.2764C336.616 82.9901 335.392 88.8204 334.575 94.7673C333.876 100.714 333.526 106.136 333.526 111.034C333.526 112.2 333.642 114.007 333.876 116.456C334.226 118.905 334.867 121.179 335.8 123.277C336.733 125.26 338.015 126.251 339.648 126.251ZM392.623 130.274C389.475 130.274 386.968 129.049 385.102 126.601C383.237 124.035 381.896 120.945 381.079 117.331C380.263 113.599 379.738 109.926 379.505 106.311C379.272 102.696 379.155 99.8396 379.155 97.7407C379.155 85.9635 380.496 74.0697 383.178 62.0593C384.461 56.4622 385.685 51.5647 386.851 47.3669C388.134 43.1691 389.475 39.2628 390.874 35.648C392.273 32.0332 393.848 28.3018 395.597 24.4538C397.462 20.6058 399.561 16.2331 401.893 11.3356H401.369C400.669 11.3356 400.086 11.0441 399.62 10.4611C399.27 9.76145 399.095 9.12012 399.095 8.53709C399.095 7.13781 399.969 5.97175 401.719 5.03891C403.468 4.10606 404.925 3.63963 406.091 3.63963C408.54 3.63963 410.406 4.74739 411.688 6.96291C412.971 9.06182 413.846 11.5105 414.312 14.3091C414.778 16.991 415.012 19.2648 415.012 21.1305C415.012 23.4627 414.837 25.8531 414.487 28.3018C413.671 34.1321 412.213 40.3705 410.114 47.0171C408.132 53.6636 405.567 60.0187 402.418 66.0822C399.386 72.0291 395.655 77.1598 391.224 81.4742C390.408 82.1738 389.358 83.0484 388.076 84.0978C386.91 85.0307 385.685 85.4971 384.403 85.4971C384.053 89.4617 383.878 93.5429 383.878 97.7407C383.878 99.2566 383.936 101.53 384.053 104.562C384.286 107.477 384.694 110.567 385.277 113.832C385.977 116.981 386.968 119.721 388.251 122.053C389.65 124.269 391.457 125.376 393.673 125.376C396.121 125.376 398.454 124.094 400.669 121.528C403.001 118.846 405.158 115.581 407.141 111.733C409.123 107.769 410.93 103.863 412.563 100.015C414.195 96.0499 415.536 92.785 416.586 90.2196C417.752 87.5377 418.568 86.1384 419.035 86.0218C419.384 86.4882 419.559 87.1879 419.559 88.1207C419.559 90.103 419.035 92.785 417.985 96.1665C416.936 99.5481 415.478 103.221 413.612 107.186C411.863 111.034 409.823 114.765 407.491 118.38C405.158 121.878 402.71 124.735 400.144 126.951C397.696 129.166 395.189 130.274 392.623 130.274ZM384.752 81.9989C387.434 81.2993 390 79.0838 392.448 75.3524C395.014 71.621 397.346 67.0733 399.445 61.7095C401.544 56.3456 403.351 50.8651 404.867 45.268C406.499 39.5543 407.724 34.3653 408.54 29.7011C409.473 24.9202 409.939 21.3638 409.939 19.0316C409.939 17.8656 409.823 16.408 409.589 14.6589C409.356 12.7932 408.482 11.6271 406.966 11.1607C406.849 11.6271 406.558 11.977 406.091 12.2102C405.741 12.4434 405.45 12.6766 405.217 12.9098C403.817 14.4257 402.243 17.3408 400.494 21.6553C398.745 25.9697 396.996 31.0421 395.247 36.8724C393.614 42.7027 392.04 48.5913 390.524 54.5382C389.009 60.4851 387.726 65.9656 386.676 70.9796C385.627 75.8771 384.986 79.5502 384.752 81.9989ZM428.814 59.2607C427.998 59.2607 427.24 59.0858 426.541 58.736C425.841 58.2696 425.491 57.6282 425.491 56.812C425.491 55.8791 425.899 54.4799 426.716 52.6142C427.532 50.6319 428.581 48.6496 429.864 46.6673C431.147 44.685 432.488 42.9942 433.887 41.5949C435.403 40.1956 436.744 39.496 437.91 39.496C438.843 39.496 439.309 40.079 439.309 41.2451C439.309 42.6444 438.551 43.7521 437.035 44.5684C436.102 45.1514 435.286 46.2591 434.586 47.8916C434.003 49.5241 433.479 51.2149 433.012 52.964C432.662 54.7131 432.313 56.1124 431.963 57.1618C431.613 58.5611 430.564 59.2607 428.814 59.2607ZM425.316 126.251C422.634 126.251 420.652 125.143 419.369 122.928C418.087 120.596 417.27 117.972 416.921 115.057C416.571 112.025 416.396 109.576 416.396 107.711C416.396 106.544 416.513 104.387 416.746 101.239C417.096 98.0905 417.504 94.5924 417.97 90.7444C418.553 86.7798 419.194 82.9318 419.894 79.2004C420.71 75.469 421.643 72.3789 422.693 69.9302C423.742 67.4815 424.85 66.2571 426.016 66.2571C426.949 66.2571 427.765 66.5486 428.465 67.1316C429.164 67.7147 429.514 68.4726 429.514 69.4055C429.514 70.8047 429.106 73.0202 428.29 76.052C427.473 79.0838 426.482 82.5236 425.316 86.3716C424.267 90.2196 423.276 94.1259 422.343 98.0905C421.527 101.939 421.118 105.437 421.118 108.585C421.118 109.401 421.177 110.801 421.293 112.783C421.527 114.765 421.935 116.631 422.518 118.38C423.101 120.012 424.034 120.829 425.316 120.829C427.065 120.829 428.989 119.546 431.088 116.981C433.187 114.415 435.286 111.267 437.385 107.536C439.601 103.688 441.641 99.8979 443.507 96.1665C445.373 92.3185 446.947 89.1119 448.229 86.5465C449.512 83.9812 450.387 82.6985 450.853 82.6985C451.436 82.6985 451.786 82.9318 451.902 83.3982C452.136 83.748 452.252 84.1561 452.252 84.6225C452.252 86.1384 451.611 88.5871 450.328 91.9687C449.046 95.2337 447.355 98.8485 445.256 102.813C443.157 106.661 440.883 110.392 438.434 114.007C435.986 117.505 433.595 120.421 431.263 122.753C428.931 125.085 426.949 126.251 425.316 126.251ZM459.202 130.799C456.987 130.799 455.121 129.982 453.605 128.35C452.206 126.717 451.098 124.735 450.282 122.403C449.466 119.954 448.883 117.505 448.533 115.057C448.299 112.608 448.183 110.567 448.183 108.935C448.183 107.186 448.358 104.387 448.708 100.539C449.174 96.5747 449.874 92.2019 450.807 87.4211C451.739 82.6402 452.905 78.0343 454.305 73.6033C455.704 69.0556 457.336 65.2659 459.202 62.2342C461.184 59.2024 463.458 57.5699 466.024 57.3367C466.373 56.2873 466.898 55.4127 467.598 54.7131C468.297 53.8968 469.23 53.4887 470.396 53.4887C472.728 53.4887 474.769 54.4799 476.518 56.4622C478.267 58.4445 479.725 60.8932 480.891 63.8084C482.057 66.7235 482.931 69.5804 483.515 72.3789C484.214 75.1775 484.564 77.4513 484.564 79.2004C484.564 84.5642 484.039 89.8698 482.99 95.1171L484.389 95.292C487.771 95.292 490.394 94.7673 492.26 93.7178C494.126 92.6684 495.583 91.6772 496.633 90.7444C497.682 89.6949 498.557 89.1702 499.256 89.1702C499.956 89.1702 500.306 89.5783 500.306 90.3945C500.306 91.7938 499.548 93.0765 498.032 94.2425C496.633 95.292 494.884 96.2831 492.785 97.216C490.686 98.0322 488.645 98.6153 486.663 98.9651C484.681 99.3149 483.165 99.3732 482.115 99.14C481.532 101.589 480.541 104.62 479.142 108.235C477.859 111.733 476.227 115.232 474.244 118.73C472.379 122.111 470.163 124.968 467.598 127.3C465.032 129.632 462.234 130.799 459.202 130.799ZM478.267 91.6189C478.967 87.5377 479.317 83.3982 479.317 79.2004C479.317 78.2675 479.083 76.6933 478.617 74.4778C478.267 72.1457 477.684 69.697 476.868 67.1316C476.168 64.5663 475.294 62.3508 474.244 60.4851C473.195 58.6194 472.087 57.6865 470.921 57.6865C470.338 57.6865 469.872 58.153 469.522 59.0858C469.289 59.9021 469.114 60.8349 468.997 61.8844C468.997 62.9338 468.997 63.6335 468.997 63.9833C468.997 68.6475 469.697 73.545 471.096 78.6756C472.612 83.6897 475.002 88.0041 478.267 91.6189ZM459.727 126.251C461.476 126.251 463.283 125.085 465.149 122.753C467.015 120.304 468.764 117.389 470.396 114.007C472.145 110.509 473.603 107.186 474.769 104.037C475.935 100.889 476.693 98.557 477.043 97.0411C472.612 94.0093 469.289 89.9281 467.073 84.7975C464.974 79.6668 463.925 74.4195 463.925 69.0556C463.925 66.7235 464.1 64.508 464.449 62.4091C462.001 66.6069 459.96 71.5627 458.328 77.2764C456.695 82.9901 455.471 88.8204 454.655 94.7673C453.955 100.714 453.605 106.136 453.605 111.034C453.605 112.2 453.722 114.007 453.955 116.456C454.305 118.905 454.946 121.179 455.879 123.277C456.812 125.26 458.094 126.251 459.727 126.251Z" fill="#6D1919"/>
</svg>
